<svg id="Layer_1" enable-background="new 0 0 480.001 480.001" height="512" viewBox="0 0 480.001 480.001" width="512" xmlns="http://www.w3.org/2000/svg"><path d="m402 424.743v47.257c0 4.418-3.582 8-8 8s-8-3.582-8-8v-47.257c0-24.523-13.176-45.885-33-57.504v104.761c0 4.418-3.582 8-8 8s-8-3.582-8-8v-111.477c-5.658-1.538-11.552-2.351-17.573-2.351-17.411 0-33.208-8.87-42.258-23.728-2.299-3.773-1.103-8.695 2.67-10.994 3.772-2.3 8.695-1.103 10.994 2.67 6.123 10.051 16.812 16.051 28.594 16.051 45.637 0 82.573 36.93 82.573 82.572zm-119.563 14.304-24.979 2.716-10.137-22.991c-2.796-6.343-11.837-6.358-14.64 0l-10.137 22.991-24.979-2.716c-6.889-.75-11.425 7.071-7.32 12.679l18.301 25c2.609 3.565 7.616 4.34 11.181 1.729 3.565-2.61 4.339-7.616 1.729-11.181l-7.584-10.36 12.764 1.388c3.471.379 6.778-1.535 8.185-4.726l5.18-11.748 5.18 11.748c1.407 3.191 4.726 5.104 8.185 4.726l12.764-1.388-7.584 10.36c-2.61 3.565-1.835 8.571 1.729 11.181 3.565 2.61 8.571 1.836 11.181-1.729l18.301-25c4.108-5.612-.44-13.437-7.32-12.679zm7.951-72.564c2.845 3.38 2.412 8.427-.968 11.272-36.839 31.013-92.817 20.862-116.341-21.176-11.296 2.926-16.813.098-31.079 4.219v111.202c0 4.418-3.582 8-8 8s-8-3.582-8-8v-104.166c-19.313 11.781-32 32.841-32 56.909v47.257c0 4.418-3.582 8-8 8s-8-3.582-8-8v-47.257c0-45.635 36.929-82.571 82.571-82.571 18.452 0 33.429-14.864 33.429-33.341v-2.107c-38.131-18.232-61-56.792-61-95.371v-46.527c0-47.946 31.887-88.261 75.487-101.221l9.275-45.446c2.148-10.522 11.5-18.159 22.238-18.159s20.091 7.637 22.238 18.158l12.703 62.243c3.546 17.374-9.738 33.599-27.434 33.599h-15.013c-17.164 0-30.234-15.28-27.687-32.158-33.276 13.585-55.807 46.449-55.807 82.984v45.299c0 50.178 40.822 91 91 91s91-40.822 91-91v-45.296c0-27.478-12.352-53.057-33.889-70.178-3.458-2.75-4.033-7.782-1.284-11.241 2.749-3.458 7.782-4.034 11.241-1.284 25.378 20.175 39.932 50.319 39.932 82.703v45.905c0 69.574-67.987 122.419-137.17 102.053-1.244 15.762-9.788 29.158-22.057 37.259 19.109 32.28 62.62 39.651 91.342 15.47 3.382-2.845 8.428-2.412 11.273.967zm-57.894-268.483h15.013c7.6 0 13.274-6.968 11.757-14.399l-12.703-62.243c-1.45-7.101-11.67-7.112-13.122 0l-12.703 62.243c-1.519 7.446 4.174 14.399 11.758 14.399z"/></svg>